<svg xmlns="http://www.w3.org/2000/svg" width="50" height="35.68" viewBox="0 0 50 35.68"><defs><style>.cls-1{fill:#fff;}</style></defs><g id="Layer_2" data-name="Layer 2"><g id="Layer_1-2" data-name="Layer 1"><g id="iAluM8.tif"><path class="cls-1" d="M25,28.06c-5.21,0-10.42,0-15.62,0-1.25,0-1.85-.29-2.14-1.58-.93-4.23-2-8.42-3-12.64C4,13,3.8,12.52,2.77,12.42A3,3,0,0,1,0,9.52a3.12,3.12,0,0,1,2-3C3.59,6.05,5.17,6.54,5.7,8a8.24,8.24,0,0,1,0,3c0,.41-.29,1-.1,1.2A15.32,15.32,0,0,0,12.9,17a5.22,5.22,0,0,0,5.89-2c1.8-2.57,3.25-5.38,4.82-8.11.44-.75-.18-1.08-.66-1.51A3.06,3.06,0,0,1,26.58.43,3,3,0,0,1,27,5.33a1.34,1.34,0,0,0-.39,2,77.36,77.36,0,0,0,4.23,7.16C33,17.42,35.84,18,39,16.22a46.88,46.88,0,0,0,5.12-3.71c.57-.42.6-.86.23-1.5a3,3,0,0,1,.41-3.78,3.27,3.27,0,0,1,3.59-.56A3.25,3.25,0,0,1,50,9.81a3,3,0,0,1-2.79,2.62c-1,.08-1.22.54-1.41,1.37-1,4.37-2.12,8.73-3.12,13.1-.22.94-.66,1.18-1.55,1.17C35.73,28,30.35,28.05,25,28.06Z"/><path class="cls-1" d="M41.65,31c-.36,1.49-.64,2.9-1.08,4.27-.09.26-.82.43-1.26.43q-11.55,0-23.12,0c-1.92,0-3.84,0-5.75,0-.72,0-1.06-.21-1.21-.92C9,33.55,8.67,32.35,8.33,31Z"/></g></g></g></svg>